<svg id="Layer_1" xmlns="http://www.w3.org/2000/svg" viewBox="0 0 278.7 384" preserveAspectRatio="xMinYMin slice"><style>.st0 { fill: #BDBDBD; }</style><path id="XMLID_25_" class="st0" d="M267.2 172.5c-4.6-.3-9.7 2.5-14.8 7.5V82.7C252.3 41.4 201.9 0 138.9 0 75.8 0 25.4 41.4 25.4 82.7v93.9l.5 2.9c-4.9-4.7-9.9-7.3-14.4-7-11.9.7-15.1 21.7-7.3 46.8 5.2 16.6 13.9 30.9 22.6 38.5l13-4.9 12.9 68.4C86.3 388.5 145 384 145 384h.4c.4 0 1.1.1 2 .1 3.5.1 10.6-.1 19.5-2.8 3.9-1.1 6.8-2.3 8.8-3.3 16.3-7.3 36.1-23 52-56.8l13.7-67.4 10.4 3.9c8.7-7.6 17.4-21.9 22.6-38.5 7.9-25.1 4.6-46-7.2-46.7z"/></svg>