<?xml version="1.0" encoding="utf-8"?>
<!-- Generator: Adobe Illustrator 19.0.0, SVG Export Plug-In . SVG Version: 6.00 Build 0)  -->
<svg version="1.1" id="Layer_1" xmlns="http://www.w3.org/2000/svg" xmlns:xlink="http://www.w3.org/1999/xlink" x="0px" y="0px"
	 viewBox="-180 49 278.7 384" style="enable-background:new -180 49 278.7 384;" xml:space="preserve">
<style type="text/css">
	.st0{fill:#BDBDBD;}
	.st1{fill:#FFFFFF;}
	.st2{fill:none;}
	.st3{fill:#424242;}
	.st4{fill:#212121;}
</style>
<path id="XMLID_25_" class="st0" d="M84.8,222.9c-4.5-0.3-9.5,5.5-14.5,10.4v-51.7l0,0l0,0v-47.8C70.1,93.3,20.7,52.7-41.1,52.7
	c-61.9,0-111.3,40.6-111.3,81.1v92.1l0.5,6.8c-4.8-4.6-9.7-10.2-14.1-9.9c-11.7,0.7-14.8,20.3-7.2,44.9
	c5.1,16.3,13.6,30.3,22.2,37.8l12.8-4.8l12.7,67.1c33,65.9,90.5,61.5,90.5,61.5l0,0c0,0,0,0,0.1,0l0,0c0.1,0,0.2,0,0.3,0l0,0
	c0.4,0,1.1,0.1,2,0.1l0,0c3.4,0.1,10.4-0.1,19.1-2.7c3.8-1.1,6.7-2.3,8.6-3.2c16-7.2,35.4-22.6,51-55.7l13.4-66.1l10.2,3.8
	c8.5-7.5,17.1-21.5,22.2-37.8C99.6,243.1,96.3,223.6,84.8,222.9z"/>
<path id="XMLID_26_" class="st1" d="M31.1,242.8h-4c-4.3,4.3-10.2,7-16.8,7c-4.8,0-9.3-1.4-13-3.9v-8.2c4.3-4.2,10.4-6.8,17.1-6.8
	c7.8,0,14.7,3.5,19,8.8C32.8,240.8,32,241.9,31.1,242.8z"/>
<path id="XMLID_22_" class="st1" d="M-103.4,239.7c4.3-5.3,11.2-8.8,19-8.8c6.8,0,12.8,2.6,17.1,6.8v8.2c-3.7,2.5-8.2,3.9-13,3.9
	c-6.6,0-12.5-2.7-16.8-7h-4C-101.9,241.9-102.7,240.8-103.4,239.7z"/>
<path id="XMLID_97_" class="st2" d="M-97,242.8c4.3,4.3,10.2,7,16.8,7c4.8,0,9.3-1.4,13-3.9v-8.2c-4.3-4.2-10.4-6.8-17.1-6.8
	c-7.8,0-14.7,3.5-19,8.8c0.7,1.1,1.5,2.1,2.4,3.1L-97,242.8L-97,242.8z"/>
<path id="XMLID_96_" class="st2" d="M14.4,231c-6.8,0-12.8,2.6-17.1,6.8v8.2c3.7,2.5,8.2,3.9,13,3.9c6.6,0,12.5-2.7,16.8-7h4
	c0.9-1,1.7-2,2.4-3.1C29.1,234.4,22.2,231,14.4,231z"/>
<path id="XMLID_31_" class="st3" d="M87.2,221.5c-4.6-0.3-9.7,2.5-14.8,7.5v-48.6l-1.7-23.5L62,115.5L39.6,95.4h-8.9
	c1.9-2.6,2.9-5.4,2.9-8.2c0-16-30.2-17-70.3-17s-74.8,0.9-74.8,17c0,16,32.5,29,72.6,29c28,0,52.3-6.3,64.4-15.6l24.8,107.2H24.6
	c-29.6-0.2-52.5,18.1-52.5,35.7c0,13.4,0,40.1,0,40.1l9.4,8v-42.3c-0.3-6.9,1.4-13.8,6.8-19.5C8,209.2,45,217.5,55.9,232.6H56
	l5.9,25.5l-10.2,55.4L37.8,330c-13.4,66.8-23,96.5-75.5,103.1h2.7c0,0,49.8,7.3,82.7-62.6l13.7-67.4l10.4,3.9
	c8.7-7.6,17.4-21.9,22.6-38.5C102.3,243.1,99,222.2,87.2,221.5z"/>
<path id="XMLID_21_" class="st3" d="M-35,376.8c2,0,4.2-0.4,6.4-1.1c-2.2,0.5-4.4,0.9-6.4,0.9c-5,0-10.9-2-16.2-4.3
	C-45.9,370-40,368-35,368c4.7,0,10.4,1.8,15.4,4c8-4.1,14.7-9.4,14.7-9.4v-6.3l-30.5,1.7v0.4l-30.2-1.7v15.1c0,0,14.5,12,30.5,12v-7
	H-35z"/>
<path id="XMLID_19_" class="st3" d="M-53,342.8l13.9-24.7h-11.4c-12.3-2.1-10.4-14.7-5.1-21.4l13.1,6.7c0,0,0-46.4,0-59.8
	c0-17.5-22.7-35.7-52-35.7h-21l-1.7,3.6l-11.3,21.1c14.3-15.1,49.9-23.1,69.7-2.7c14.3,14.8,3,41.1-5.5,47.7
	c-0.3,0.2-0.3,0.4-0.3,0.4l8.6,7.5c-12.9,15.2-13.7,28.8-4,32.6h-0.4c0,0-0.4,10.5-16.5,10.5c-22.1,0-19.3,34.1-6.5,37.3l-0.2-23
	L-53,342.8L-53,342.8z"/>
<path id="XMLID_15_" class="st3" d="M-35,357L-35,357l15.1-1h17.4l6-0.8l3.8-2.3c0,0-24.6,0.4-33.6-3.8l-8.6,3.2l0,0l-8.6-3.2
	c-9,4.2-33.3,3.8-33.3,3.8l3.8,2.3l5.7,0.8h17.4L-35,357z"/>
<path id="XMLID_39_" class="st3" d="M44.8,242.4c-4.6-10.7-15.2-18.2-27.5-18.2c-14.1,0-25.9,9.8-29.1,22.9h5.3
	c2.6,2.1,5.6,3.7,8.8,4.7c0.4,0.1,0.7,0.2,1.1,0.3c0.3,0.1,0.6,0.1,0.9,0.2c0.2,0.1,0.3,0.1,0.5,0.1s0.4,0.1,0.6,0.1
	c0.2,0.1,0.5,0.1,0.7,0.1c0.3,0,0.6,0.1,0.9,0.1c0.3,0,0.6,0.1,0.9,0.1c0.1,0,0.2,0,0.2,0c0.3,0,0.6,0,1,0.1c0.4,0,0.8,0,1.2,0
	c0.6,0,1.2,0,1.8-0.1c0.5,0,0.9-0.1,1.4-0.1c0.3,0,0.5-0.1,0.8-0.1c0.5-0.1,1-0.2,1.5-0.3c0,0,0,0,0.1,0c6.2-1.3,11.7-4.8,15.5-9.6
	h-0.1c0.1-0.1,0.2-0.3,0.3-0.4L44.8,242.4L44.8,242.4z M31.1,242.8h-4c-4.3,4.3-10.2,7-16.8,7c-4.8,0-9.3-1.4-13-3.9v-8.2
	c4.3-4.2,10.4-6.8,17.1-6.8c7.8,0,14.7,3.5,19,8.8C32.8,240.8,32,241.9,31.1,242.8z"/>
<path id="XMLID_42_" class="st3" d="M-85.9,252.5c0.8,0.2,1.6,0.3,2.5,0.4c0.5,0.1,0.9,0.1,1.4,0.1c0.6,0,1.2,0.1,1.8,0.1
	c0.4,0,0.8,0,1.2,0c0.3,0,0.6,0,0.9,0c0.1,0,0.2,0,0.3,0c0.3,0,0.6-0.1,0.8-0.1c0.3,0,0.6-0.1,0.9-0.1c0.2,0,0.5-0.1,0.7-0.1
	s0.3-0.1,0.5-0.1s0.4-0.1,0.6-0.1c0.3-0.1,0.5-0.1,0.8-0.2c0.4-0.1,0.7-0.2,1.1-0.3c3.2-1,6.2-2.6,8.8-4.7h5.3
	c-3.1-13.1-14.9-22.9-29-22.9c-12.4,0-23,7.5-27.5,18.2h13.2c0.1,0.1,0.2,0.3,0.3,0.4h-0.1c3.3,4.2,7.9,7.4,13.2,9
	C-87.4,252.1-86.6,252.3-85.9,252.5z M-103.4,239.7c4.3-5.3,11.2-8.8,19-8.8c6.8,0,12.8,2.6,17.1,6.8v8.2c-3.7,2.5-8.2,3.9-13,3.9
	c-6.6,0-12.5-2.7-16.8-7h-4C-101.9,241.9-102.7,240.8-103.4,239.7z"/>
<polygon id="XMLID_13_" class="st3" points="-34.9,325.5 -35,325.4 -35,325.7 -41.5,342.5 -35,347.5 -35,347.6 -34.9,347.5 
	-34.8,347.6 -34.8,347.5 -28.3,342.5 -34.8,325.7 -34.8,325.4 "/>
<path id="XMLID_62_" class="st4" d="M-34.5,357L-34.5,357c-0.1,0-0.1,0-0.2,0H-34.5z"/>
<path id="XMLID_61_" class="st4" d="M-49,318h9.8C-43.5,308.3-57,306.3-49,318z"/>
<path id="XMLID_60_" class="st4" d="M-39.2,318.2C-39.2,318.1-39.2,318.1-39.2,318.2L-39.2,318.2L-39.2,318.2z"/>
<path id="XMLID_59_" class="st4" d="M-21,318.2c8.2-12-5.5-9.9-9.8,0H-21z"/>
<path id="XMLID_58_" class="st4" d="M-39.1,318L-39.1,318C-39.2,318-39.2,318.1-39.1,318L-39.1,318z"/>
<path id="XMLID_57_" class="st4" d="M-39.2,318.2L-39.2,318.2c0-0.1,0-0.1,0-0.1H-49l0.1,0.1H-39.2z"/>
<path id="XMLID_56_" class="st4" d="M3.9,354.9c-0.1,0.1-0.2,0.1-0.4,0.2L3.9,354.9L3.9,354.9z"/>
<path id="XMLID_55_" class="st4" d="M-34.6,357H-35v-0.1C-34.8,356.9-34.7,357-34.6,357z"/>
<path id="XMLID_54_" class="st4" d="M-35,357L-35,357L-35,357z"/>
<path id="XMLID_53_" class="st4" d="M3.8,354.9l-0.3,0.2l0,0c-2.9,1.5-5.7,2.5-8.3,3.2c-7.5,2.1-13.7,1.6-18,1.6
	c-6.7,0-11.7,3.3-11.7,3.3s-0.2-0.1-0.4-0.2c-0.1,0-0.2-0.1-0.3-0.2c-1.6-0.9-5.8-2.9-11-2.9c-4.6,0-10.6,0.8-19.1-1.9
	c-2.2-0.7-4.7-1.6-7.3-2.9c-0.2-0.1-0.4-0.2-0.6-0.3H-45c4.2,0,8.7,1.5,10.1,2v0.1l0,0h0.4h0.1c0,0,0,0,0.1,0
	c0.7-0.3,5.7-2.1,10.4-2.1L3.8,354.9L3.8,354.9z"/>
<path id="XMLID_52_" class="st4" d="M-35,356.9v0.1l0,0V356.9L-35,356.9z"/>
<path id="XMLID_51_" class="st4" d="M-59.9,318L-59.9,318c-3.7-1.4-5.9-4.2-6.4-8C-65.1,313.4-62.9,316.2-59.9,318z"/>
<path id="XMLID_50_" class="st4" d="M-50.3,318.1L-50.3,318.1h-9.5c0,0,0,0-0.1,0l0,0h0.1H-50.3z"/>
<path id="XMLID_49_" class="st4" d="M-50.3,318.1c-0.1,0-0.1,0-0.2,0H-50.3C-50.4,318-50.4,318-50.3,318.1z"/>
<path id="XMLID_48_" class="st4" d="M-50.4,318h-9.5c-3-1.8-5.2-4.6-6.4-8c-2.8-7.7-0.4-18.1,10.4-24.5l0,0l0.3,11.2
	c-1.6,2.1-2.8,4.3-3.4,6.6C-60.3,308.4-58.3,313.8-50.4,318z"/>
<path id="XMLID_47_" class="st4" d="M-50.3,318.1h-9.5c0,0,0,0-0.1,0h9.4C-50.5,318-50.4,318-50.3,318.1z"/>
<path id="XMLID_46_" class="st4" d="M51.7,227.8c3.1-10-4.7-19.7-9.6-19.9c-3.9,0.3-13.3,4.1-18,9.6C24,217.5,39.8,217.8,51.7,227.8
	z"/>
<path id="XMLID_45_" class="st4" d="M5.6,219.4c-1,0.3-2,0.6-2.9,1C3.6,220.2,4.5,219.9,5.6,219.4z"/>
<path id="XMLID_38_" class="st4" d="M22.9,208c-8.1,0-29.4,4-31.2,10c-0.4,1.5,1.9,5,10.9,2.4c1-0.4,2-0.7,2.9-1
	c0.1,0,0.2-0.1,0.3-0.1C5.8,219.4,15.9,210.6,22.9,208z"/>
<path id="XMLID_37_" class="st4" d="M31.6,242.4c-0.1,0.1-0.2,0.3-0.3,0.4h-0.2c0.1-0.1,0.2-0.3,0.4-0.4H31.6z"/>
<line id="XMLID_36_" class="st2" x1="31.4" y1="242.8" x2="31.2" y2="242.8"/>
<path id="XMLID_35_" class="st4" d="M-101,242.8h-0.2c-0.1-0.1-0.2-0.3-0.3-0.4h0.1C-101.3,242.5-101.1,242.7-101,242.8z"/>
<path id="XMLID_28_" class="st4" d="M15.6,229.2c-7.2,0-13.8,3.3-18.3,7.9v1.4c1.4-1.3,2.9-2.5,4.6-3.4c-0.1,0.6-0.2,1.2-0.2,1.9
	c0,4.9,4,8.9,8.9,8.9s8.9-4,8.9-8.9c0-1.3-0.2-2.5-0.6-3.6c5,1.5,9.2,4.7,12,9h7.3C33.7,234.5,25.3,229.2,15.6,229.2z M13.7,240.4
	v-4.5c1.2,0,2.3,1,2.3,2.3S15,240.4,13.7,240.4z"/>
<path id="XMLID_27_" class="st4" d="M-2.7,237.1v0.6c-0.1,0.1-0.3,0.3-0.4,0.4v-0.6C-3,237.4-2.8,237.3-2.7,237.1z"/>
<path id="XMLID_24_" class="st4" d="M-2.7,237.7v0.8c-0.1,0.1-0.3,0.2-0.4,0.4v-0.8C-3,238-2.8,237.9-2.7,237.7z"/>
<polygon id="XMLID_23_" class="st4" points="-101.5,242.4 -107.9,242.4 -107.9,242.4 "/>
<path id="XMLID_16_" class="st4" d="M-85.5,229.2c-9.6,0-18,5.3-22.4,13.2h7.2c2.8-4.2,7-7.5,12-9c-0.4,1.1-0.6,2.4-0.6,3.6
	c0,4.9,4,8.9,8.9,8.9s8.9-4,8.9-8.9c0-0.6-0.1-1.3-0.2-1.9c1.7,0.9,3.2,2.1,4.6,3.4v-1.4C-71.7,232.6-78.4,229.2-85.5,229.2z
	 M-77.3,240.4v-4.5c1.2,0,2.3,1,2.3,2.3S-76.1,240.4-77.3,240.4z"/>
<path id="XMLID_14_" class="st4" d="M-62.1,218.1c-1.8-6.1-23-10-31.2-10c7,2.6,17.1,11.3,17.1,11.3
	C-64.5,223.9-61.6,219.7-62.1,218.1z"/>
<path id="XMLID_4_" class="st4" d="M25.6,100.5c-0.1,0-0.1,0.1-0.1,0.1l-0.1-0.3C25.5,100.4,25.6,100.4,25.6,100.5z"/>
<polygon id="XMLID_3_" class="st4" points="-35,433 -35,433 -35,433 "/>
<path id="XMLID_2_" class="st4" d="M72.3,131.7v48.6c-0.6-3.9-1.4-7.7-2.4-11.4c-7-27.6-23.3-51.9-44.3-68.4c-0.1,0-0.1-0.1-0.2-0.1
	C16.9,93.8,7.7,88.4-2,84.6c-10.4-4.1-21.4-6.4-32.6-6.5c-3,3.2-6.3,6-9.7,8.4c-22.3,15.7-51.2,15.5-57.4,15.3
	c-0.8,0-1.2-0.1-1.2-0.1l-14.7,20.5c17.4,49.5,7.1,78.1,3.6,85.6c-0.1,0.1-0.1,0.2-0.1,0.3c4.9,0.9,15.3,4.4,19.6,9.5
	c0,0-9.8,0-21,5.8c-6.7,3.4-13.8,8.9-19.8,17.6c-0.5,0.7-0.9,1.4-1.4,2.1l-0.2,0.3l0,0l13,70.6l13.3,15.2
	c10.5,52.4,18.6,82,46.2,95.7h63.7c0,0-1.1,0.9-3.5,2.2c-2,1-5,2.3-9,3.4C-26,434.3-35,433-35,433l0,0c0,0-58.7,4.5-92.2-62.6
	l-13-68.4l-13,4.9c-8.7-7.6-17.5-21.9-22.6-38.5c-7.8-25.2-4.5-46.1,7.3-46.8c4.4-0.3,9.4,2.4,14.4,7l-0.5-2.9v-94
	c0-41.3,50.4-82.7,113.5-82.7C21.9,49,72.3,90.4,72.3,131.7z"/>
</svg>
