<svg id="Layer_1" xmlns="http://www.w3.org/2000/svg" viewBox="-180 49 278.7 384"><style>.st0{fill:#BDBDBD;} .st1{fill:#FFFFFF;} .st2{fill:none;} .st3{fill:#424242;} .st4{fill:#212121;}</style><path id="XMLID_25_" class="st0" d="M84.8 222.9c-4.5-.3-9.5 5.5-14.5 10.4v-99.5c-.2-40.5-49.6-81.1-111.4-81.1-61.9 0-111.3 40.6-111.3 81.1v92.1l.5 6.8c-4.8-4.6-9.7-10.2-14.1-9.9-11.7.7-14.8 20.3-7.2 44.9 5.1 16.3 13.6 30.3 22.2 37.8l12.8-4.8 12.7 67.1c33 65.9 90.5 61.5 90.5 61.5h.4c.4 0 1.1.1 2 .1 3.4.1 10.4-.1 19.1-2.7 3.8-1.1 6.7-2.3 8.6-3.2 16-7.2 35.4-22.6 51-55.7l13.4-66.1 10.2 3.8c8.5-7.5 17.1-21.5 22.2-37.8 7.7-24.6 4.4-44.1-7.1-44.8z"/><path id="XMLID_26_" class="st1" d="M31.1 242.8h-4c-4.3 4.3-10.2 7-16.8 7-4.8 0-9.3-1.4-13-3.9v-8.2c4.3-4.2 10.4-6.8 17.1-6.8 7.8 0 14.7 3.5 19 8.8-.6 1.1-1.4 2.2-2.3 3.1z"/><path id="XMLID_22_" class="st1" d="M-103.4 239.7c4.3-5.3 11.2-8.8 19-8.8 6.8 0 12.8 2.6 17.1 6.8v8.2c-3.7 2.5-8.2 3.9-13 3.9-6.6 0-12.5-2.7-16.8-7h-4c-.8-.9-1.6-2-2.3-3.1z"/><path id="XMLID_97_" class="st2" d="M-97 242.8c4.3 4.3 10.2 7 16.8 7 4.8 0 9.3-1.4 13-3.9v-8.2c-4.3-4.2-10.4-6.8-17.1-6.8-7.8 0-14.7 3.5-19 8.8.7 1.1 1.5 2.1 2.4 3.1h3.9z"/><path id="XMLID_96_" class="st2" d="M14.4 231c-6.8 0-12.8 2.6-17.1 6.8v8.2c3.7 2.5 8.2 3.9 13 3.9 6.6 0 12.5-2.7 16.8-7h4c.9-1 1.7-2 2.4-3.1-4.4-5.4-11.3-8.8-19.1-8.8z"/><path id="XMLID_31_" class="st3" d="M87.2 221.5c-4.6-.3-9.7 2.5-14.8 7.5v-48.6l-1.7-23.5-8.7-41.4-22.4-20.1h-8.9c1.9-2.6 2.9-5.4 2.9-8.2 0-16-30.2-17-70.3-17s-74.8.9-74.8 17c0 16 32.5 29 72.6 29 28 0 52.3-6.3 64.4-15.6l24.8 107.2H24.6c-29.6-.2-52.5 18.1-52.5 35.7v40.1l9.4 8v-42.3c-.3-6.9 1.4-13.8 6.8-19.5C8 209.2 45 217.5 55.9 232.6h.1l5.9 25.5-10.2 55.4L37.8 330c-13.4 66.8-23 96.5-75.5 103.1h2.7s49.8 7.3 82.7-62.6l13.7-67.4 10.4 3.9c8.7-7.6 17.4-21.9 22.6-38.5 7.9-25.4 4.6-46.3-7.2-47z"/><path id="XMLID_21_" class="st3" d="M-35 376.8c2 0 4.2-.4 6.4-1.1-2.2.5-4.4.9-6.4.9-5 0-10.9-2-16.2-4.3C-45.9 370-40 368-35 368c4.7 0 10.4 1.8 15.4 4 8-4.1 14.7-9.4 14.7-9.4v-6.3l-30.5 1.7v.4l-30.2-1.7v15.1s14.5 12 30.5 12v-7h.1z"/><path id="XMLID_19_" class="st3" d="M-53 342.8l13.9-24.7h-11.4c-12.3-2.1-10.4-14.7-5.1-21.4l13.1 6.7v-59.8c0-17.5-22.7-35.7-52-35.7h-21l-1.7 3.6-11.3 21.1c14.3-15.1 49.9-23.1 69.7-2.7 14.3 14.8 3 41.1-5.5 47.7-.3.2-.3.4-.3.4l8.6 7.5c-12.9 15.2-13.7 28.8-4 32.6h-.4s-.4 10.5-16.5 10.5c-22.1 0-19.3 34.1-6.5 37.3l-.2-23 30.6-.1z"/><path id="XMLID_15_" class="st3" d="M-35 357l15.1-1h17.4l6-.8 3.8-2.3s-24.6.4-33.6-3.8l-8.6 3.2-8.6-3.2c-9 4.2-33.3 3.8-33.3 3.8l3.8 2.3 5.7.8h17.4l14.9 1z"/><path id="XMLID_39_" class="st3" d="M44.8 242.4c-4.6-10.7-15.2-18.2-27.5-18.2-14.1 0-25.9 9.8-29.1 22.9h5.3c2.6 2.1 5.6 3.7 8.8 4.7.4.1.7.2 1.1.3.3.1.6.1.9.2.2.1.3.1.5.1s.4.1.6.1c.2.1.5.1.7.1.3 0 .6.1.9.1.3 0 .6.1.9.1h.2c.3 0 .6 0 1 .1h1.2c.6 0 1.2 0 1.8-.1.5 0 .9-.1 1.4-.1.3 0 .5-.1.8-.1l1.5-.3h.1c6.2-1.3 11.7-4.8 15.5-9.6h-.1c.1-.1.2-.3.3-.4l13.2.1zm-13.7.4h-4c-4.3 4.3-10.2 7-16.8 7-4.8 0-9.3-1.4-13-3.9v-8.2c4.3-4.2 10.4-6.8 17.1-6.8 7.8 0 14.7 3.5 19 8.8-.6 1.1-1.4 2.2-2.3 3.1z"/><path id="XMLID_42_" class="st3" d="M-85.9 252.5c.8.2 1.6.3 2.5.4.5.1.9.1 1.4.1.6 0 1.2.1 1.8.1h2.4c.3 0 .6-.1.8-.1.3 0 .6-.1.9-.1.2 0 .5-.1.7-.1s.3-.1.5-.1.4-.1.6-.1c.3-.1.5-.1.8-.2.4-.1.7-.2 1.1-.3 3.2-1 6.2-2.6 8.8-4.7h5.3c-3.1-13.1-14.9-22.9-29-22.9-12.4 0-23 7.5-27.5 18.2h13.2c.1.1.2.3.3.4h-.1c3.3 4.2 7.9 7.4 13.2 9 .8 0 1.6.2 2.3.4zm-17.5-12.8c4.3-5.3 11.2-8.8 19-8.8 6.8 0 12.8 2.6 17.1 6.8v8.2c-3.7 2.5-8.2 3.9-13 3.9-6.6 0-12.5-2.7-16.8-7h-4c-.8-.9-1.6-2-2.3-3.1z"/><path id="XMLID_13_" class="st3" d="M-34.9 325.5l-.1-.1v.3l-6.5 16.8 6.5 5v.1l.1-.1.1.1v-.1l6.5-5-6.5-16.8v-.3z"/><path id="XMLID_62_" class="st4" d="M-34.5 357h-.2.2z"/><path id="XMLID_61_" class="st4" d="M-49 318h9.8c-4.3-9.7-17.8-11.7-9.8 0z"/><path id="XMLID_60_" class="st4" d="M-39.2 318.2c0-.1 0-.1 0 0z"/><path id="XMLID_59_" class="st4" d="M-21 318.2c8.2-12-5.5-9.9-9.8 0h9.8z"/><path id="XMLID_58_" class="st4" d="M-39.1 318c-.1 0-.1.1 0 0z"/><path id="XMLID_57_" class="st4" d="M-39.2 318.2v-.1H-49l.1.1h9.7z"/><path id="XMLID_56_" class="st4" d="M3.9 354.9c-.1.1-.2.1-.4.2l.4-.2z"/><path id="XMLID_55_" class="st4" d="M-34.6 357h-.4v-.1c.2 0 .3.1.4.1z"/><path id="XMLID_54_" class="st4" d="M-35 357z"/><path id="XMLID_53_" class="st4" d="M3.8 354.9l-.3.2c-2.9 1.5-5.7 2.5-8.3 3.2-7.5 2.1-13.7 1.6-18 1.6-6.7 0-11.7 3.3-11.7 3.3l-.4-.2c-.1 0-.2-.1-.3-.2-1.6-.9-5.8-2.9-11-2.9-4.6 0-10.6.8-19.1-1.9-2.2-.7-4.7-1.6-7.3-2.9l-.6-.3H-45c4.2 0 8.7 1.5 10.1 2v.1h.6c.7-.3 5.7-2.1 10.4-2.1l27.7.1z"/><path id="XMLID_52_" class="st4" d="M-35 356.9v.1-.1z"/><path id="XMLID_51_" class="st4" d="M-59.9 318c-3.7-1.4-5.9-4.2-6.4-8 1.2 3.4 3.4 6.2 6.4 8z"/><path id="XMLID_50_" class="st4" d="M-50.3 318.1h-9.5-.1 9.6z"/><path id="XMLID_49_" class="st4" d="M-50.3 318.1h-.2.2c-.1-.1-.1-.1 0 0z"/><path id="XMLID_48_" class="st4" d="M-50.4 318h-9.5c-3-1.8-5.2-4.6-6.4-8-2.8-7.7-.4-18.1 10.4-24.5l.3 11.2c-1.6 2.1-2.8 4.3-3.4 6.6-1.3 5.1.7 10.5 8.6 14.7z"/><path id="XMLID_47_" class="st4" d="M-50.3 318.1h-9.5-.1 9.4c0-.1.1-.1.2 0z"/><path id="XMLID_46_" class="st4" d="M51.7 227.8c3.1-10-4.7-19.7-9.6-19.9-3.9.3-13.3 4.1-18 9.6-.1 0 15.7.3 27.6 10.3z"/><path id="XMLID_45_" class="st4" d="M5.6 219.4c-1 .3-2 .6-2.9 1 .9-.2 1.8-.5 2.9-1z"/><path id="XMLID_38_" class="st4" d="M22.9 208c-8.1 0-29.4 4-31.2 10-.4 1.5 1.9 5 10.9 2.4 1-.4 2-.7 2.9-1 .1 0 .2-.1.3-.1 0 .1 10.1-8.7 17.1-11.3z"/><path id="XMLID_37_" class="st4" d="M31.6 242.4c-.1.1-.2.3-.3.4h-.2c.1-.1.2-.3.4-.4h.1z"/><path id="XMLID_36_" class="st2" d="M31.4 242.8h-.2"/><path id="XMLID_35_" class="st4" d="M-101 242.8h-.2c-.1-.1-.2-.3-.3-.4h.1l.4.4z"/><path id="XMLID_28_" class="st4" d="M15.6 229.2c-7.2 0-13.8 3.3-18.3 7.9v1.4c1.4-1.3 2.9-2.5 4.6-3.4-.1.6-.2 1.2-.2 1.9 0 4.9 4 8.9 8.9 8.9s8.9-4 8.9-8.9c0-1.3-.2-2.5-.6-3.6 5 1.5 9.2 4.7 12 9h7.3c-4.5-7.9-12.9-13.2-22.6-13.2zm-1.9 11.2v-4.5c1.2 0 2.3 1 2.3 2.3s-1 2.2-2.3 2.2z"/><path id="XMLID_27_" class="st4" d="M-2.7 237.1v.6l-.4.4v-.6c.1-.1.3-.2.4-.4z"/><path id="XMLID_24_" class="st4" d="M-2.7 237.7v.8c-.1.1-.3.2-.4.4v-.8c.1-.1.3-.2.4-.4z"/><path id="XMLID_23_" class="st4" d="M-101.5 242.4h-6.4z"/><path id="XMLID_16_" class="st4" d="M-85.5 229.2c-9.6 0-18 5.3-22.4 13.2h7.2c2.8-4.2 7-7.5 12-9-.4 1.1-.6 2.4-.6 3.6 0 4.9 4 8.9 8.9 8.9s8.9-4 8.9-8.9c0-.6-.1-1.3-.2-1.9 1.7.9 3.2 2.1 4.6 3.4v-1.4c-4.6-4.5-11.3-7.9-18.4-7.9zm8.2 11.2v-4.5c1.2 0 2.3 1 2.3 2.3s-1.1 2.2-2.3 2.2z"/><path id="XMLID_14_" class="st4" d="M-62.1 218.1c-1.8-6.1-23-10-31.2-10 7 2.6 17.1 11.3 17.1 11.3 11.7 4.5 14.6.3 14.1-1.3z"/><path id="XMLID_4_" class="st4" d="M25.6 100.5c-.1 0-.1.1-.1.1l-.1-.3c.1.1.2.1.2.2z"/><path id="XMLID_3_" class="st4" d="M-35 433z"/><path id="XMLID_2_" class="st4" d="M72.3 131.7v48.6c-.6-3.9-1.4-7.7-2.4-11.4-7-27.6-23.3-51.9-44.3-68.4-.1 0-.1-.1-.2-.1-8.5-6.6-17.7-12-27.4-15.8-10.4-4.1-21.4-6.4-32.6-6.5-3 3.2-6.3 6-9.7 8.4-22.3 15.7-51.2 15.5-57.4 15.3-.8 0-1.2-.1-1.2-.1l-14.7 20.5c17.4 49.5 7.1 78.1 3.6 85.6-.1.1-.1.2-.1.3 4.9.9 15.3 4.4 19.6 9.5 0 0-9.8 0-21 5.8-6.7 3.4-13.8 8.9-19.8 17.6-.5.7-.9 1.4-1.4 2.1l-.2.3 13 70.6 13.3 15.2c10.5 52.4 18.6 82 46.2 95.7H-.7s-1.1.9-3.5 2.2c-2 1-5 2.3-9 3.4C-26 434.3-35 433-35 433s-58.7 4.5-92.2-62.6l-13-68.4-13 4.9c-8.7-7.6-17.5-21.9-22.6-38.5-7.8-25.2-4.5-46.1 7.3-46.8 4.4-.3 9.4 2.4 14.4 7l-.5-2.9v-94c0-41.3 50.4-82.7 113.5-82.7 63 0 113.4 41.4 113.4 82.7z"/></svg>