<?xml version="1.0" encoding="utf-8"?>
    <!-- Generator: Adobe Illustrator 19.0.0, SVG Export Plug-In . SVG Version: 6.00 Build 0)  -->
    <svg version="1.1" id="Layer_1" xmlns="http://www.w3.org/2000/svg" xmlns:xlink="http://www.w3.org/1999/xlink" x="0px" y="0px" viewBox="0 0 278.7 384" style="enable-background:new 0 0 278.7 384;" xml:space="preserve" preserveAspectRatio="xMinYMin slice">
        <style type="text/css">
            .st0 {
                fill: #BDBDBD;
            }
        </style>
        <path id="XMLID_25_" class="st0" d="M267.2,172.5c-4.6-0.3-9.7,2.5-14.8,7.5v-48.6l0,0c0,0,0,0,0,0V82.7
		C252.3,41.4,201.9,0,138.9,0C75.8,0,25.4,41.4,25.4,82.7v93.9l0.5,2.9c-4.9-4.7-9.9-7.3-14.4-7c-11.9,0.7-15.1,21.7-7.3,46.8
		c5.2,16.6,13.9,30.9,22.6,38.5l13-4.9l12.9,68.4C86.3,388.5,145,384,145,384s0,0,0,0c0,0,0,0,0.1,0c0,0,0,0,0,0c0.1,0,0.2,0,0.3,0
		c0,0,0,0,0,0c0.4,0,1.1,0.1,2,0.1c0,0,0,0,0,0c3.5,0.1,10.6-0.1,19.5-2.8c3.9-1.1,6.8-2.3,8.8-3.3c16.3-7.3,36.1-23,52-56.8
		l13.7-67.4l10.4,3.9c8.7-7.6,17.4-21.9,22.6-38.5C282.3,194.1,279,173.2,267.2,172.5z" />
    </svg>